<svg xmlns="http://www.w3.org/2000/svg" width="1024" height="1024" viewBox="0 0 350 350"><defs><radialGradient id="edgeFade" gradientUnits="userSpaceOnUse" cx="175" cy="175" r="175"><stop offset="0.58" stop-color="white"/><stop offset="1" stop-color="black"/></radialGradient><mask id="artEdge" maskUnits="userSpaceOnUse" x="0" y="0" width="350" height="350"><rect width="350" height="350" fill="url(#edgeFade)"/></mask></defs><defs><filter id="g3b2" x="-200%" y="-200%" width="500%" height="500%"><feGaussianBlur stdDeviation="2"></feGaussianBlur></filter><filter id="g3b6" x="-200%" y="-200%" width="500%" height="500%"><feGaussianBlur stdDeviation="6"></feGaussianBlur></filter><filter id="g3b14" x="-200%" y="-200%" width="500%" height="500%"><feGaussianBlur stdDeviation="14"></feGaussianBlur></filter><filter id="g3b30" x="-200%" y="-200%" width="500%" height="500%"><feGaussianBlur stdDeviation="30"></feGaussianBlur></filter><radialGradient id="g3bgr" cx=".5" cy=".5" r=".7"><stop offset="0" stop-color="#0A0824"></stop><stop offset="1" stop-color="#140F3A"></stop></radialGradient></defs><g mask="url(#artEdge)"><radialGradient id="g3eg" cx=".5" cy=".5" r=".5"><stop offset="0" stop-color="#FFFFFF"></stop><stop offset=".4" stop-color="#FFE9A8" stop-opacity=".85"></stop><stop offset="1" stop-color="#FFC857" stop-opacity="0"></stop></radialGradient><radialGradient id="g3cd" cx=".5" cy=".5" r=".5"><stop offset="0" stop-color="#FFFFFF"></stop><stop offset=".25" stop-color="#FFF0C2" stop-opacity=".9"></stop><stop offset=".6" stop-color="#FFC857" stop-opacity=".25"></stop><stop offset="1" stop-color="#FFC857" stop-opacity="0"></stop></radialGradient><linearGradient id="g3met" x1="1" y1="1" x2="0" y2="0"><stop offset="0" stop-color="#FFFFFF"></stop><stop offset="1" stop-color="#FFFFFF" stop-opacity="0"></stop></linearGradient><g class="pop" style="animation-delay:1.10s"><g class="spinS"><ellipse cx="230.3" cy="322.5" rx="2.8" ry="1.5" fill="url(#g3eg)" transform="rotate(88 230.3 322.5)"></ellipse></g></g><g class="pop" style="animation-delay:1.18s"><g class="spinS"><ellipse cx="185.8" cy="13.4" rx="5.5" ry="3.0" fill="url(#g3eg)" transform="rotate(4 185.8 13.4)"></ellipse></g></g><g class="pop" style="animation-delay:1.26s"><g class="spinS"><ellipse cx="241.4" cy="95.5" rx="3.8" ry="2.1" fill="url(#g3eg)" transform="rotate(8 241.4 95.5)"></ellipse></g></g><g class="pop" style="animation-delay:1.34s"><g class="spinS"><ellipse cx="220.0" cy="39.0" rx="2.9" ry="1.6" fill="url(#g3eg)" transform="rotate(56 220.0 39.0)"></ellipse></g></g><g class="pop" style="animation-delay:1.42s"><g class="spinS"><ellipse cx="188.0" cy="101.9" rx="6.5" ry="3.5" fill="url(#g3eg)" transform="rotate(178 188.0 101.9)"></ellipse></g></g></g></svg>
