<svg xmlns="http://www.w3.org/2000/svg" viewBox="0 0 640 120" width="640" height="120">
  <rect width="640" height="120" fill="#070a14"/>
  <line x1="0" y1="60" x2="640" y2="60" stroke="#1e293b" stroke-width="1"/>
  <polyline fill="none" stroke="#7fd8ff" stroke-width="1" points="0,59.99 0,60.00 1,59.86 1,59.99 2,59.41 2,59.85 3,58.59 3,59.37 4,57.59 4,58.53 5,56.74 5,57.52 6,56.48 6,56.70 7,56.52 7,57.35 8,57.46 8,59.58 9,59.77 9,63.18 10,63.46 10,67.78 11,68.10 11,72.59 12,72.89 12,76.52 13,76.73 13,78.39 14,77.14 14,78.43 15,72.12 15,76.93 16,63.34 16,71.65 17,51.86 17,62.64 18,41.44 18,51.10 19,33.88 19,40.83 20,30.24 20,33.51 21,30.00 21,30.98 22,31.19 22,35.92 23,36.38 23,44.26 24,44.91 24,54.74 25,55.48 25,65.80 26,66.52 26,75.83 27,76.43 27,83.40 28,83.78 28,87.43 29,87.42 29,87.94 30,83.44 30,87.28 31,76.12 31,83.04 32,66.60 32,75.54 33,56.29 33,65.92 34,46.70 34,55.61 35,39.20 35,46.12 36,34.86 36,38.81 37,34.02 37,34.70 38,34.33 38,37.36 39,37.69 39,43.71 40,44.22 40,52.30 41,52.93 41,61.86 42,62.50 42,70.98 43,71.53 43,78.33 44,78.73 44,82.90 45,83.09 45,84.12 46,81.72 46,84.01 47,76.27 47,81.45 48,68.56 48,75.81 49,59.76 49,68.00 50,51.15 50,59.16 51,43.99 51,50.62 52,39.28 52,43.59 53,37.66 53,39.07 54,37.67 54,39.31 55,39.53 55,43.92 56,44.32 56,50.78 57,51.29 57,58.85 58,59.40 58,66.92 59,67.43 59,73.84 60,74.24 60,78.63 61,78.85 61,80.62 62,79.59 62,80.66 63,75.73 63,79.41 64,69.68 64,75.39 65,62.34 65,69.22 66,54.80 66,61.83 67,48.17 67,54.32 68,43.38 68,47.78 69,41.09 69,43.14 70,40.94 70,41.58 71,41.71 71,44.74 72,45.03 72,50.04 73,50.45 73,56.68 74,57.14 74,63.66 75,64.12 75,69.98 76,70.35 76,74.72 77,74.96 77,77.24 78,77.21 78,77.54 79,74.68 79,77.11 80,70.09 80,74.43 81,64.12 81,69.72 82,57.68 82,63.70 83,51.72 83,57.26 84,47.07 84,51.36 85,44.39 85,46.82 86,43.89 86,44.29 87,44.09 87,45.99 88,46.20 88,49.93 89,50.25 89,55.25 90,55.64 90,61.15 91,61.54 91,66.75 92,67.09 92,71.26 93,71.50 93,74.04 94,74.15 94,74.76 95,73.27 95,74.69 96,69.92 96,73.10 97,65.21 97,69.64 98,59.85 98,64.87 99,54.63 99,59.49 100,50.30 100,54.31 101,47.47 101,50.06 102,46.51 102,47.34 103,46.52 103,47.53 104,47.66 104,50.33 105,50.57 105,54.46 106,54.77 106,59.31 107,59.64 107,64.14 108,64.45 108,68.27 109,68.50 109,71.11 110,71.24 110,72.27 111,71.63 111,72.29 112,69.33 112,71.53 113,65.73 113,69.12 114,61.38 114,65.45 115,56.94 115,61.08 116,53.04 116,56.65 117,50.24 117,52.81 118,48.91 118,50.10 119,48.83 119,49.23 120,49.30 120,51.09 121,51.26 121,54.19 122,54.43 122,58.07 123,58.34 123,62.13 124,62.39 124,65.78 125,66.00 125,68.51 126,68.65 126,69.94 127,69.90 127,70.11 128,68.43 128,69.85 129,65.78 129,68.29 130,62.36 130,65.57 131,58.68 131,62.11 132,55.28 132,58.44 133,52.65 133,55.08 134,51.15 134,52.51 135,50.87 135,51.09 136,51.00 136,52.09 137,52.21 137,54.33 138,54.51 138,57.33 139,57.55 139,60.64 140,60.86 140,63.78 141,63.97 141,66.28 142,66.42 142,67.82 143,67.88 143,68.21 144,67.36 144,68.16 145,65.49 145,67.26 146,62.88 146,65.33 147,59.92 147,62.69 148,57.05 148,59.72 149,54.69 149,56.87 150,53.15 150,54.56 151,52.65 151,53.09 152,52.65 152,53.22 153,53.30 153,54.76 154,54.89 154,57.01 155,57.17 155,59.63 156,59.81 156,62.23 157,62.39 157,64.44 158,64.56 158,65.94 159,66.01 159,66.55 160,66.19 160,66.56 161,64.95 161,66.14 162,63.03 162,64.84 163,60.73 163,62.89 164,58.39 164,60.57 165,56.34 165,58.24 166,54.89 166,56.23 167,54.21 167,54.82 168,54.18 168,54.39 169,54.43 169,55.38 170,55.47 170,57.00 171,57.12 171,59.00 172,59.14 172,61.09 173,61.23 173,62.96 174,63.07 174,64.35 175,64.42 175,65.07 176,65.03 176,65.15 177,64.27 177,65.00 178,62.92 178,64.20 179,61.19 179,62.81 180,59.34 180,61.06 181,57.64 181,59.22 182,56.34 182,57.54 183,55.60 183,56.27 184,55.48 184,55.58 185,55.55 185,56.10 186,56.16 186,57.21 187,57.30 187,58.69 188,58.80 188,60.31 189,60.42 189,61.84 190,61.93 190,63.05 191,63.11 191,63.78 192,63.80 192,63.95 193,63.53 193,63.93 194,62.62 194,63.48 195,61.37 195,62.55 196,59.96 196,61.28 197,58.61 197,59.87 198,57.50 198,58.52 199,56.79 199,57.44 200,56.57 200,56.76 201,56.57 201,56.85 202,56.88 202,57.57 203,57.63 203,58.62 204,58.70 204,59.83 205,59.91 205,61.02 206,61.09 206,62.02 207,62.08 207,62.70 208,62.73 208,62.96 209,62.78 209,62.96 210,62.22 210,62.76 211,61.35 211,62.17 212,60.32 212,61.29 213,59.29 213,60.25 214,58.39 214,59.22 215,57.76 215,58.34 216,57.48 216,57.73 217,57.47 217,57.57 218,57.59 218,58.01 219,58.04 219,58.71 220,58.76 220,59.57 221,59.63 221,60.46 222,60.52 222,61.25 223,61.30 223,61.83 224,61.86 224,62.12 225,62.10 225,62.15 226,61.77 226,62.08 227,61.20 227,61.74 228,60.49 228,61.16 229,59.73 229,60.44 230,59.04 230,59.68 231,58.52 231,59.00 232,58.24 232,58.50 233,58.19 233,58.23 234,58.23 234,58.45 235,58.48 235,58.90 236,58.94 236,59.49 237,59.53 237,60.12 238,60.16 238,60.71 239,60.75 239,61.17 240,61.19 240,61.44 241,61.45 241,61.50 242,61.33 242,61.49 243,60.98 243,61.31 244,60.51 244,60.95 245,59.99 245,60.47 246,59.49 246,59.95 247,59.09 247,59.46 248,58.84 248,59.07 249,58.77 249,58.83 250,58.77 250,58.88 251,58.89 251,59.14 252,59.16 252,59.51 253,59.54 253,59.94 254,59.97 254,60.35 255,60.38 255,60.69 256,60.71 256,60.92 257,60.93 257,61.00 258,60.93 258,61.00 259,60.74 259,60.92 260,60.45 260,60.72 261,60.11 261,60.42 262,59.77 262,60.08 263,59.48 263,59.75 264,59.29 264,59.47 265,59.21 265,59.28 266,59.20 266,59.24 267,59.25 267,59.38 268,59.40 268,59.60 269,59.62 269,59.87 270,59.89 270,60.14 271,60.16 271,60.37 272,60.39 272,60.54 273,60.55 273,60.62 274,60.60 274,60.62 275,60.51 275,60.60 276,60.34 276,60.50 277,60.14 277,60.33 278,59.93 278,60.12 279,59.74 279,59.91 280,59.60 280,59.73 281,59.53 281,59.60 282,59.52 282,59.53 283,59.53 283,59.60 284,59.60 284,59.72 285,59.73 285,59.87 286,59.88 286,60.03 287,60.04 287,60.18 288,60.18 288,60.28 289,60.29 289,60.35 290,60.35 290,60.36 291,60.31 291,60.35 292,60.23 292,60.31 293,60.12 293,60.22 294,60.00 294,60.11 295,59.89 295,59.99 296,59.80 296,59.88 297,59.75 297,59.80 298,59.74 298,59.75 299,59.74 299,59.77 300,59.77 300,59.83 301,59.83 301,59.90 302,59.91 302,59.99 303,59.99 303,60.07 304,60.07 304,60.13 305,60.13 305,60.17 306,60.17 306,60.18 307,60.16 307,60.18 308,60.13 308,60.16 309,60.08 309,60.12 310,60.02 310,60.07 311,59.96 311,60.01 312,59.92 312,59.96 313,59.89 313,59.92 314,59.88 314,59.89 315,59.88 315,59.89 316,59.89 316,59.91 317,59.91 317,59.95 318,59.95 318,59.98 319,59.99 319,60.02 320,60.02 320,60.05 321,60.05 321,60.07 322,60.07 322,60.07 323,60.07 323,60.07 324,60.06 324,60.07 325,60.04 325,60.06 326,60.01 326,60.04 327,59.99 327,60.01 328,59.97 328,59.99 329,59.96 329,59.97 330,59.96 330,59.96 331,59.96 331,59.96 332,59.96 332,59.97 333,59.97 333,59.98 334,59.98 334,59.99 335,59.99 335,60.00 336,60.00 336,60.01 337,60.01 337,60.02 338,60.02 338,60.02 339,60.02 339,60.02 340,60.02 340,60.02 341,60.01 341,60.02 342,60.01 342,60.01 343,60.00 343,60.00 344,60.00 344,60.00 345,59.99 345,60.00 346,59.99 346,59.99 347,59.99 347,59.99 348,59.99 348,59.99 349,59.99 349,60.00 350,60.00 350,60.00 351,60.00 351,60.00 352,60.00 352,60.00 353,60.00 353,60.00 354,60.00 354,60.00 355,60.00 355,60.00 356,60.00 356,60.00 357,60.00 357,60.00 358,60.00 358,60.00 359,60.00 359,60.00 360,60.00 360,60.00 361,60.00 361,60.00 362,60.00 362,60.00 363,60.00 363,60.00 364,60.00 364,60.00 365,60.00 365,60.00 366,60.00 366,60.00 367,60.00 367,60.00 368,60.00 368,60.00 369,60.00 369,60.00 370,60.00 370,60.00 371,60.00 371,60.00 372,60.00 372,60.00 373,60.00 373,60.00 374,60.00 374,60.00 375,60.00 375,60.00 376,60.00 376,60.00 377,60.00 377,60.00 378,60.00 378,60.00 379,60.00 379,60.00 380,60.00 380,60.00 381,60.00 381,60.00 382,60.00 382,60.00 383,60.00 383,60.00 384,60.00 384,60.00 385,60.00 385,60.00 386,60.00 386,60.00 387,60.00 387,60.00 388,60.00 388,60.00 389,60.00 389,60.00 390,60.00 390,60.00 391,60.00 391,60.00 392,60.00 392,60.00 393,60.00 393,60.00 394,60.00 394,60.00 395,60.00 395,60.00 396,60.00 396,60.00 397,60.00 397,60.00 398,60.00 398,60.00 399,60.00 399,60.00 400,60.00 400,60.00 401,60.00 401,60.00 402,60.00 402,60.00 403,60.00 403,60.00 404,60.00 404,60.00 405,60.00 405,60.00 406,60.00 406,60.00 407,60.00 407,60.00 408,60.00 408,60.00 409,60.00 409,60.00 410,60.00 410,60.00 411,60.00 411,60.00 412,60.00 412,60.00 413,60.00 413,60.00 414,60.00 414,60.00 415,60.00 415,60.00 416,60.00 416,60.00 417,60.00 417,60.00 418,60.00 418,60.00 419,60.00 419,60.00 420,60.00 420,60.00 421,60.00 421,60.00 422,60.00 422,60.00 423,60.00 423,60.00 424,60.00 424,60.00 425,60.00 425,60.00 426,60.00 426,60.00 427,60.00 427,60.00 428,60.00 428,60.00 429,60.00 429,60.00 430,60.00 430,60.00 431,60.00 431,60.00 432,60.00 432,60.00 433,60.00 433,60.00 434,60.00 434,60.00 435,60.00 435,60.00 436,60.00 436,60.00 437,60.00 437,60.00 438,60.00 438,60.00 439,60.00 439,60.00 440,60.00 440,60.00 441,60.00 441,60.00 442,60.00 442,60.00 443,60.00 443,60.00 444,60.00 444,60.00 445,60.00 445,60.00 446,60.00 446,60.00 447,60.00 447,60.00 448,60.00 448,60.00 449,60.00 449,60.00 450,60.00 450,60.00 451,60.00 451,60.00 452,60.00 452,60.00 453,60.00 453,60.00 454,60.00 454,60.00 455,60.00 455,60.00 456,60.00 456,60.00 457,60.00 457,60.00 458,60.00 458,60.00 459,60.00 459,60.00 460,60.00 460,60.00 461,60.00 461,60.00 462,60.00 462,60.00 463,60.00 463,60.00 464,60.00 464,60.00 465,60.00 465,60.00 466,60.00 466,60.00 467,60.00 467,60.00 468,60.00 468,60.00 469,60.00 469,60.00 470,60.00 470,60.00 471,60.00 471,60.00 472,60.00 472,60.00 473,60.00 473,60.00 474,60.00 474,60.00 475,60.00 475,60.00 476,60.00 476,60.00 477,60.00 477,60.00 478,60.00 478,60.00 479,60.00 479,60.00 480,60.00 480,60.00 481,60.00 481,60.00 482,60.00 482,60.00 483,60.00 483,60.00 484,60.00 484,60.00 485,60.00 485,60.00 486,60.00 486,60.00 487,60.00 487,60.00 488,60.00 488,60.00 489,60.00 489,60.00 490,60.00 490,60.00 491,60.00 491,60.00 492,60.00 492,60.00 493,60.00 493,60.00 494,60.00 494,60.00 495,60.00 495,60.00 496,60.00 496,60.00 497,60.00 497,60.00 498,60.00 498,60.00 499,60.00 499,60.00 500,60.00 500,60.00 501,60.00 501,60.00 502,60.00 502,60.00 503,60.00 503,60.00 504,60.00 504,60.00 505,60.00 505,60.00 506,60.00 506,60.00 507,60.00 507,60.00 508,60.00 508,60.00 509,60.00 509,60.00 510,60.00 510,60.00 511,60.00 511,60.00 512,60.00 512,60.00 513,60.00 513,60.00 514,60.00 514,60.00 515,60.00 515,60.00 516,60.00 516,60.00 517,60.00 517,60.00 518,60.00 518,60.00 519,60.00 519,60.00 520,60.00 520,60.00 521,60.00 521,60.00 522,60.00 522,60.00 523,60.00 523,60.00 524,60.00 524,60.00 525,60.00 525,60.00 526,60.00 526,60.00 527,60.00 527,60.00 528,60.00 528,60.00 529,60.00 529,60.00 530,60.00 530,60.00 531,60.00 531,60.00 532,60.00 532,60.00 533,60.00 533,60.00 534,60.00 534,60.00 535,60.00 535,60.00 536,60.00 536,60.00 537,60.00 537,60.00 538,60.00 538,60.00 539,60.00 539,60.00 540,60.00 540,60.00 541,60.00 541,60.00 542,60.00 542,60.00 543,60.00 543,60.00 544,60.00 544,60.00 545,60.00 545,60.00 546,60.00 546,60.00 547,60.00 547,60.00 548,60.00 548,60.00 549,60.00 549,60.00 550,60.00 550,60.00 551,60.00 551,60.00 552,60.00 552,60.00 553,60.00 553,60.00 554,60.00 554,60.00 555,60.00 555,60.00 556,60.00 556,60.00 557,60.00 557,60.00 558,60.00 558,60.00 559,60.00 559,60.00 560,60.00 560,60.00 561,60.00 561,60.00 562,60.00 562,60.00 563,60.00 563,60.00 564,60.00 564,60.00 565,60.00 565,60.00 566,60.00 566,60.00 567,60.00 567,60.00 568,60.00 568,60.00 569,60.00 569,60.00 570,60.00 570,60.00 571,60.00 571,60.00 572,60.00 572,60.00 573,60.00 573,60.00 574,60.00 574,60.00 575,60.00 575,60.00 576,60.00 576,60.00 577,60.00 577,60.00 578,60.00 578,60.00 579,60.00 579,60.00 580,60.00 580,60.00 581,60.00 581,60.00 582,60.00 582,60.00 583,60.00 583,60.00 584,60.00 584,60.00 585,60.00 585,60.00 586,60.00 586,60.00 587,60.00 587,60.00 588,60.00 588,60.00 589,60.00 589,60.00 590,60.00 590,60.00 591,60.00 591,60.00 592,60.00 592,60.00 593,60.00 593,60.00 594,60.00 594,60.00 595,60.00 595,60.00 596,60.00 596,60.00 597,60.00 597,60.00 598,60.00 598,60.00 599,60.00 599,60.00 600,60.00 600,60.00 601,60.00 601,60.00 602,60.00 602,60.00 603,60.00 603,60.00 604,60.00 604,60.00 605,60.00 605,60.00 606,60.00 606,60.00 607,60.00 607,60.00 608,60.00 608,60.00 609,60.00 609,60.00 610,60.00 610,60.00 611,60.00 611,60.00 612,60.00 612,60.00 613,60.00 613,60.00 614,60.00 614,60.00 615,60.00 615,60.00 616,60.00 616,60.00 617,60.00 617,60.00 618,60.00 618,60.00 619,60.00 619,60.00 620,60.00 620,60.00 621,60.00 621,60.00 622,60.00 622,60.00 623,60.00 623,60.00 624,60.00 624,60.00 625,60.00 625,60.00 626,60.00 626,60.00 627,60.00 627,60.00 628,60.00 628,60.00 629,60.00 629,60.00 630,60.00 630,60.00 631,60.00 631,60.00 632,60.00 632,60.00 633,60.00 633,60.00 634,60.00 634,60.00 635,60.00 635,60.00 636,60.00 636,60.00 637,60.00 637,60.00 638,60.00 638,60.00 639,60.00 639,60.00"/>
</svg>
